<svg id="Слой_1" data-name="Слой 1" xmlns="http://www.w3.org/2000/svg" xmlns:xlink="http://www.w3.org/1999/xlink" viewBox="0 0 245.76 112.32">
  <image width="1024" height="468" transform="scale(0.24)" xlink:href="map.png"/>
  <g id="SVGRepo_iconCarrier" data-name="SVGRepo iconCarrier">
    <path d="M1006,549h0s.26.4-2.84.55l-.8,1.12h.13a.34.34,0,1,1,0,.67h-.63l-.39.5h.05a.34.34,0,1,1,0,.67h-.59a6.19,6.19,0,0,1-1.16,1.16s-.62,0-.62-.33c0,0,1.43-2.49,1.93-3.74-3.16,0-3.16-.18-3.16-.18s-.7,1.25-1.4,1.25L997,549h0l-.53-1.67c.7,0,1.4,1.25,1.4,1.25s0-.21,3.16-.18c-.5-1.25-1.93-3.74-1.93-3.74,0-.34.62-.34.62-.34a6.66,6.66,0,0,1,1.16,1.17h.59a.34.34,0,1,1,0,.67h-.05l.39.5h.63a.34.34,0,1,1,0,.67h-.13l.8,1.12C1006.22,548.57,1006,549,1006,549Z" transform="translate(-837 -484)" style="stroke: #000;stroke-linejoin: round;stroke-width: 0.16842105639608285px"/>
  </g>
  <g id="SVGRepo_iconCarrier-2" data-name="SVGRepo iconCarrier">
    <path d="M994.9,559.13h0s.25.39-2.78.53l-.79,1.09h.13a.33.33,0,1,1,0,.66h-.61l-.38.48h0a.34.34,0,0,1,.34.33.33.33,0,0,1-.34.32h-.58a6.63,6.63,0,0,1-1.14,1.14s-.6,0-.6-.32c0,0,1.39-2.43,1.89-3.65-3.1,0-3.1-.18-3.1-.18s-.69,1.22-1.37,1.22l.51-1.62h0l-.51-1.63c.68,0,1.37,1.22,1.37,1.22s0-.2,3.1-.18c-.5-1.22-1.9-3.64-1.9-3.64,0-.33.61-.33.61-.33a6.63,6.63,0,0,1,1.14,1.14h.58a.34.34,0,0,1,.34.33.33.33,0,0,1-.34.32h0l.38.49h.61a.33.33,0,1,1,0,.65h-.13l.79,1.09C995.15,558.74,994.9,559.13,994.9,559.13Z" transform="translate(-837 -484)" style="stroke: #000;stroke-linejoin: round;stroke-width: 0.16842105639608285px"/>
  </g>
  <g id="SVGRepo_iconCarrier-3" data-name="SVGRepo iconCarrier">
    <path d="M1015.26,559.13h0s.26.39-2.78.53l-.78,1.09h.13a.33.33,0,1,1,0,.66h-.62l-.38.48h.05a.34.34,0,0,1,.34.33.33.33,0,0,1-.34.32h-.58a6,6,0,0,1-1.14,1.14s-.6,0-.6-.32c0,0,1.4-2.43,1.89-3.65-3.09,0-3.09-.18-3.09-.18s-.69,1.22-1.38,1.22l.52-1.62h0l-.52-1.63c.69,0,1.38,1.22,1.38,1.22s0-.2,3.09-.18c-.49-1.22-1.89-3.64-1.89-3.64,0-.33.6-.33.6-.33a6,6,0,0,1,1.14,1.14h.58a.34.34,0,0,1,.34.33.33.33,0,0,1-.34.32h0l.38.49h.62a.33.33,0,1,1,0,.65h-.13l.78,1.09C1015.52,558.74,1015.26,559.13,1015.26,559.13Z" transform="translate(-837 -484)" style="stroke: #000;stroke-linejoin: round;stroke-width: 0.16842105639608285px"/>
  </g>
</svg>
