<?xml version="1.0" encoding="UTF-8"?>
<svg id="Layer_1" data-name="Layer 1" xmlns="http://www.w3.org/2000/svg" xmlns:xlink="http://www.w3.org/1999/xlink" viewBox="0 0 1199.17 631.58">
  <defs>
    <image id="image" width="300" height="195" xlink:href="../Desktop/plane.png"/>
    <image id="image-2" width="400" height="267" xlink:href="../Desktop/SFcarNew1 копия.png"/>
  </defs>
  <g id="consumer">
    <g>
      <path d="m34.85,627.88c.95,2.29,3.52,3.88,6.48,3.68,3.25-.21,5.9-2.85,5.9-5.73v-1.42s-10.97,3.19-10.97,3.19c-.46.13-.93.22-1.41.27Z"/>
      <ellipse cx="48.65" cy="522.8" rx="11.03" ry="9.76"/>
      <path d="m19.75,595.2c-.63-2.4.35-4.8,2.37-6.29l-.97-2.61-1.01,2.71-1.05-.31c-1.67-.49-3.49.24-4.18,1.66l-12.78,26.21c-.79,1.62.16,3.5,2.06,4.05l13.09,3.81c1.9.55,3.92-.45,4.37-2.17l2.62-9.94-4.5-17.1s0-.01,0-.02Z"/>
      <path d="m109.15,607.69l-21.39-21.37c-1.17-1.17-3.15-1.35-4.56-.43l-.89.58-1.91-2.3v2.75c2.44.86,4.21,2.86,4.47,5.32,0,0,0,.01,0,.02l1.76,17.49,5.99,8.72c1.04,1.51,3.32,1.91,4.92.86l11.09-7.24c1.61-1.05,1.85-3.09.53-4.41Z"/>
      <path d="m81.14,592.54c-.16-1.55-1.63-2.75-3.39-2.75h-1.04s0-4.07,0-4.07c2.24-.74,3.71-2.76,3.42-4.95-.19-1.44-4.34-32.96-4.53-34.4-.21-5.98-5.8-10.8-12.6-10.8h-28.7c-6.87,0-12.49,4.98-12.53,11.1v.03c0,1.37.09,33.37.09,34.64,0,1.87,1.23,3.48,3.01,4.24l1.86,5.03-1.04.31c-1.66.49-2.63,2.02-2.24,3.54l7.28,27.85c.45,1.73,2.47,2.73,4.35,2.18l13.02-3.82c1.88-.55,2.84-2.42,2.05-4.05l-12.72-26.25c-.69-1.43-2.5-2.16-4.16-1.67l-1.04.31-1.54-4.16c1.08-.87,1.77-2.12,1.77-3.52,0-1.31-.09-33.28-.09-34.62,0-.31,1.15-.56,1.5-.56.35,0,.63.25.64.56l-.04,34.06h.04v3.59l.32.85c2.67.15,5.04,1.62,6.11,3.82l6.3,12.96v-21.22h2.85v26.87l3.71,7.6c1.56,3.19-.07,6.92-3.71,8.33v2.26c0,2.93,2.48,5.44,5.77,5.72,3.6.3,6.65-2.03,6.99-5.07-2.21-1.34-3.31-3.59-3.09-5.8l3.29-30.48s-.49-4.61-.58-43.27c0-.52.45-.95,1.03-.99s1.4.33,1.48.84v.08c.06.38,1.8,14.04,4.54,35.04.13,1.01.62,1.91,1.33,2.61v5.3s-1.1,0-1.1,0c-1.74,0-3.19,1.18-3.34,2.73l-2.86,28.37c-.01.1-.02.21-.01.31.03,1.64,1.52,2.96,3.36,2.96l13.73.15h0c2,0,3.57-1.52,3.39-3.28l-2.86-28.5Z"/>
    </g>
  </g>
  <g id="Company">
    <path id="Path_133" data-name="Path 133" d="m97.33,114.04H15.29c-7.55,0-13.67,4.66-13.67,10.41v100.59h109.39v-100.59c-.03-.15-.06-.29-13.67-10.41Zm-50.13,104.06v-20.81h18.23v20.81h-18.23Zm54.69,0h-27.35v-24.28c0-1.92-2.04-3.47-4.56-3.47h-27.35c-2.52,0-4.56,1.55-4.56,3.47v24.28H10.73v-93.66c0-1.92,2.04-3.47,4.56-3.47h82.04c2.52,0,4.56,1.55,4.56,3.47v93.66ZM28.96,134.86h18.23v13.87h-18.23v-13.87Zm36.46,0h18.23v13.87h-18.23v-13.87Zm-36.46,27.75h18.23v13.87h-18.23v-13.87Zm36.46,0h18.23v13.87h-18.23v-13.87Z"/>
  </g>
  <g id="Store">
    <path d="m106.45,367.87h-19.6l-26.08-31.9c-2.13-2.4-5.76-2.59-8.12-.42-.15.13-.28.27-.42.42l-26.08,31.9H6.55c-3.06,0-5.55,2.53-5.55,5.65v67.87c0,3.12,2.48,5.65,5.55,5.65h99.91c3.06,0,5.55-2.53,5.55-5.65v-67.87c0-3.12-2.48-5.65-5.55-5.65Zm-49.98-19.43l15.89,19.43h-31.79l15.89-19.43Zm22.3,76.05h-44.53c-2.65,0-5.21-2.17-5.58-4.84-.49-3.51,2.17-6.51,5.52-6.51h44.53c2.65,0,5.21,2.17,5.58,4.84.49,3.51-2.17,6.51-5.52,6.51Zm11.15-22.55H23.09c-2.65,0-5.21-2.17-5.58-4.84-.49-3.51,2.17-6.51,5.52-6.51h66.83c2.65,0,5.21,2.17,5.58,4.84.49,3.51-2.17,6.51-5.52,6.51Z"/>
  </g>
  <g>
    <path d="m938.3,256.04h-93.89c-4.16,0-7.42,3.24-7.42,7.38v98.82c0,1.08.72,1.8,1.81,1.8h104.92c1.09,0,1.81-.72,1.81-1.8v-98.82c0-4.14-3.26-7.38-7.24-7.38Zm-5.52,59.4h-83.17v-3.64h83.17v3.64h0Zm0-7.16h-83.17v-3.65h83.17v3.65h0Zm-83.17,10.8h83.17v3.64h-83.17v-3.64Zm85.07-25.25h-86.83v-7.15h86.83v7.15h0Zm-1.76,3.65v3.65h-83.17v-3.65h83.17Zm-76.02,59.36c0-1.98,1.63-3.6,3.62-3.6s3.62,1.62,3.62,3.6-1.63,3.6-3.62,3.6-3.62-1.62-3.62-3.6Zm14.47,3.6c-1.99,0-3.62-1.62-3.62-3.6s1.63-3.6,3.62-3.6,3.62,1.62,3.62,3.6-1.63,3.6-3.62,3.6Zm32.52-25.15h3.66v3.65h-3.66v-3.65Zm-1.72,7.16h7.24c1,0,1.81-.81,1.81-1.8v-5.36h3.53v10.8h-18.04v-10.8h3.66v5.36c0,.99.81,1.8,1.81,1.8Zm12.57,7.15h3.66v3.64h-3.66v-3.64Zm-19.88,0h1.83v3.64h-3.66v-3.64h1.83Zm-3.55,7.29h7.24c1,0,1.81-.81,1.81-1.8v-5.36h3.53v10.67h-18.04v-10.67h3.66v5.36c0,.99.81,1.8,1.81,1.8Zm16.24,3.51v-10.8h3.66v5.36c0,.99.81,1.8,1.81,1.8h7.24c1,0,1.81-.81,1.81-1.8v-5.36h3.53v10.8h-18.04Zm21.71,0v-12.51c0-.99-.81-1.8-1.81-1.8h-9.05v-12.65c0-.99-.81-1.8-1.81-1.8h-21.75c-1,0-1.81.81-1.81,1.8v12.65h-9.05c-1,0-1.81.81-1.81,1.8v12.51h-4.6c.62-1.06.98-2.29.98-3.6,0-3.95-3.26-7.19-7.24-7.19-2.16,0-4.1.95-5.43,2.45-1.33-1.5-3.27-2.45-5.43-2.45-3.98,0-7.24,3.24-7.24,7.19,0,1.31.36,2.54.98,3.6h-4.6v-34.16h83.31v34.16h-3.66Zm12.75.14h-5.56v-63.07c1.06,0,1.76-.72,1.76-1.8v-10.81c0-.99-.81-1.8-1.81-1.8h-90.27c-1,0-1.81.81-1.81,1.8v10.8c0,1.08.71,1.8,1.76,1.8v62.96h-5.43v-96.93c0-2.09,1.7-3.78,3.8-3.78h93.75c2.1,0,3.8,1.69,3.8,3.78v97.06h0Z"/>
    <path d="m916.6,263.2h-50.65c-1,0-1.81.81-1.81,1.8v12.6c0,.99.81,1.8,1.81,1.8h50.65c1,0,1.81-.81,1.81-1.8v-12.6c0-1.08-.72-1.8-1.81-1.8Zm-1.72,12.69h-47.08v-9.04h47.08v9.04h0Z"/>
  </g>
  <g id="warehouse">
    <path d="m417.6,372.2c-.66,0-1.31-.15-1.91-.44l-50.16-26.14-50.16,25.96c-2.23,1.08-4.89.1-5.94-2.17s-.1-4.99,2.13-6.07l53.98-27.29,53.98,27.29c2.4.54,3.91,2.96,3.38,5.41-.53,2.45-2.9,3.99-5.29,3.46Zm-73.78,44.26h-26.03v26.58h26.03v-26.58Zm34.66,0h-26.03v26.58h26.03v-26.58Zm34.82,0h-26.03v26.58h26.03v-26.58Zm-17.41-35.39h-26.03v26.58h26.03v-26.58Zm-34.66,0h-26.03v26.58h26.03v-26.58Z"/>
  </g>
  <g id="customs">
    <path d="m565.36,425.39v9.38c0,2.9,2.16,5.28,4.81,5.28h34.95c2.65,0,4.81-2.37,4.81-5.28v-9.38h-44.57Z"/>
    <path d="m559.09,376.48h-2.28c-2.65,0-4.81,2.37-4.81,5.28v38.35c0,2.9,2.16,5.28,4.81,5.28h8.55v-48.91h-6.27Z"/>
    <polygon points="615.88 429.53 615.88 440.04 659 440.04 659 425.23 615.88 425.23 615.88 429.53"/>
    <polygon points="644.77 348.28 644.77 339.04 613.81 339.04 619.51 348.28 644.77 348.28"/>
    <path d="m619.77,351.95l-5.14,7.33h7.04c0,6.69,4.65,12.12,10.62,12.64,6.75.58,12.48-5.4,12.48-12.83v-7.13h-25Z"/>
    <path d="m659,418.86v-33.91c0-4.67-3.45-8.46-7.71-8.46h-1.01l-16.45,24.43-12.09,17.95h37.26Z"/>
    <path d="m615.88,392.91v23.7l27.04-40.13h-28.58c-2.54,0-6.17,2.19-7.99,4.88-1.81,2.69-3.27,4.88-3.27,4.88l-15.7,23.2c-1.72,2.49-1.18,5.97,1.09,7.87l.54.4c2.27,1.79,5.44,1.29,7.17-1.19l19.69-29.07v5.48Z"/>
  </g>
  <g id="hub1">
    <g>
      <path d="m936.93,438.04h-91.69c-4.06,0-7.24,3.45-7.24,7.86v105.23c0,1.15.71,1.92,1.77,1.92h102.47c1.06,0,1.77-.77,1.77-1.92v-105.23c0-4.41-3.18-7.86-7.07-7.86Zm-5.39,63.25h-81.22v-3.88h81.22v3.88h0Zm0-7.62h-81.22v-3.88h81.22v3.88h0Zm-81.22,11.5h81.22v3.88h-81.22v-3.88Zm83.08-26.88h-84.8v-7.62h84.8v7.62h0Zm-1.72,3.88v3.88h-81.22v-3.88h81.22Zm-74.24,63.2c0-2.11,1.59-3.83,3.53-3.83s3.53,1.72,3.53,3.83-1.59,3.83-3.53,3.83-3.53-1.73-3.53-3.83Zm14.13,3.83c-1.94,0-3.53-1.72-3.53-3.83s1.59-3.83,3.53-3.83,3.53,1.72,3.53,3.83-1.59,3.83-3.53,3.83Zm31.76-26.79h3.58v3.88h-3.58v-3.88Zm-1.68,7.62h7.07c.98,0,1.77-.86,1.77-1.92v-5.7h3.45v11.5h-17.62v-11.5h3.58v5.7c0,1.06.79,1.92,1.77,1.92Zm12.28,7.62h3.58v3.88h-3.58v-3.88Zm-19.41,0h1.79v3.88h-3.58v-3.88h1.79Zm-3.47,7.76h7.07c.98,0,1.77-.86,1.77-1.92v-5.7h3.45v11.36h-17.62v-11.36h3.58v5.7c0,1.06.79,1.92,1.77,1.92Zm15.86,3.74v-11.5h3.58v5.7c0,1.06.79,1.92,1.77,1.92h7.07c.98,0,1.77-.86,1.77-1.92v-5.7h3.45v11.5h-17.62Zm21.2,0v-13.32c0-1.06-.79-1.92-1.77-1.92h-8.83v-13.46c0-1.06-.79-1.92-1.77-1.92h-21.24c-.98,0-1.77.86-1.77,1.92v13.46h-8.83c-.98,0-1.77.86-1.77,1.92v13.32h-4.49c.61-1.13.96-2.44.96-3.83,0-4.21-3.18-7.66-7.07-7.66-2.11,0-4,1.01-5.3,2.61-1.3-1.6-3.19-2.61-5.3-2.61-3.89,0-7.07,3.45-7.07,7.66,0,1.39.35,2.7.96,3.83h-4.49v-36.37h81.36v36.37h-3.58Zm12.45.14h-5.43v-67.16c1.03,0,1.72-.77,1.72-1.92v-11.52c0-1.06-.79-1.92-1.77-1.92h-88.16c-.98,0-1.77.86-1.77,1.92v11.5c0,1.15.69,1.92,1.72,1.92v67.04h-5.3v-103.21c0-2.22,1.66-4.03,3.71-4.03h91.56c2.05,0,3.71,1.8,3.71,4.03v103.36h0Z"/>
      <path d="m915.73,445.66h-49.47c-.98,0-1.77.86-1.77,1.92v13.42c0,1.06.79,1.92,1.77,1.92h49.47c.98,0,1.77-.86,1.77-1.92v-13.42c0-1.15-.71-1.92-1.77-1.92Zm-1.68,13.51h-45.98v-9.63h45.98v9.63h0Z"/>
    </g>
  </g>
  <line id="line1" x1="110" y1="223.04" x2="293" y2="372.04" fill="#ed1c24" stroke="#ed1c24" stroke-miterlimit="10"/>
  <line id="line2" x1="114" y1="404.04" x2="288" y2="404.54" fill="#ed1c24" stroke="#ed1c24" stroke-miterlimit="10"/>
  <line id="line3" x1="110.5" y1="583.54" x2="292" y2="438.04" fill="#ed1c24" stroke="#ed1c24" stroke-miterlimit="10"/>
  <line id="line4" x1="675" y1="392.04" x2="839" y2="314.04" fill="#ed1c24" stroke="#ed1c24" stroke-miterlimit="10"/>
  <line id="line5" x1="674" y1="408.04" x2="839" y2="489.04" fill="#ed1c24" stroke="#ed1c24" stroke-miterlimit="10"/>
  <g id="house2">
    <path d="m1150.22,207.03l11.46,10.45,28.65-26.13m-60.13-32.61v26.07m13.44-13.13h-26.87m-33.29-27.44v41.95c0,10.98,0,16.47,2.19,20.66,1.92,3.69,4.99,6.69,8.76,8.57,4.29,2.14,9.91,2.14,21.14,2.14h8.02m66.75-58.86l-36.32-39.44c-8.26-8.97-12.39-13.45-17.26-15.11-4.27-1.45-8.92-1.45-13.19,0-4.86,1.66-8.99,6.14-17.25,15.11l-36.31,39.43" fill="none" stroke="#000" stroke-linecap="round" stroke-linejoin="round" stroke-width="9"/>
  </g>
  <g id="house1">
    <path d="m1154.56,615.78l11.46,10.45,28.65-26.13m-60.13-32.61v26.07m13.44-13.13h-26.87m-33.29-27.44v41.95c0,10.98,0,16.47,2.19,20.66,1.92,3.69,4.99,6.69,8.76,8.57,4.29,2.14,9.91,2.14,21.14,2.14h8.02m66.75-58.86l-36.32-39.44c-8.26-8.97-12.39-13.45-17.26-15.11-4.27-1.45-8.92-1.45-13.19,0-4.86,1.66-8.99,6.14-17.25,15.11l-36.31,39.43" fill="none" stroke="#000" stroke-linecap="round" stroke-linejoin="round" stroke-width="9"/>
  </g>
  <line id="line7" x1="946" y1="273.04" x2="1074" y2="213.04" stroke="#ed1c24" stroke-miterlimit="10"/>
  <line id="line1-2" data-name="line1" x1="946" y1="533.04" x2="1069" y2="589.04" fill="#ed1c24" stroke="#ed1c24" stroke-miterlimit="10"/>
  <use id="car5" transform="translate(144.49 174.04) rotate(37.84) scale(.25)" xlink:href="#image-2"/>
  <use id="car4" transform="translate(117 348.37) rotate(-.19) scale(.25)" xlink:href="#image-2"/>
  <use id="car3" transform="translate(84 532.19) rotate(-39.28) scale(.25)" xlink:href="#image-2"/>
  <use id="car2" transform="translate(969.43 477.04) rotate(25.51) scale(.25)" xlink:href="#image-2"/>
  <use id="car1" transform="translate(940 210.57) rotate(-26.07) scale(.25)" xlink:href="#image-2"/>
  <use id="plane2" transform="translate(664 328.19) rotate(-25.46) scale(.37 .35)" xlink:href="#image"/>
  <use id="plane1" transform="translate(704.37 365.04) rotate(23) scale(.37 .35)" xlink:href="#image"/>
  <g id="rotate">
    <path d="m457.84,398.02c-.11-.92-.17-1.86-.17-2.81,0-12.43,10.07-22.5,22.5-22.5,7.03,0,13.31,3.23,17.44,8.28m4.89,11.41c.12.92.17,1.86.17,2.81,0,12.43-10.07,22.5-22.5,22.5-6.72,0-12.75-2.95-16.88-7.62m8.48-.83h-8.44v.84m34.26-37.38v8.27m0,0v.17h-8.44m-25.82,36.53v-7.59" fill="none" stroke="#000" stroke-linecap="round" stroke-linejoin="round" stroke-width="8"/>
  </g>
</svg>