<?xml version="1.0" encoding="UTF-8"?>
<svg id="Layer_1" data-name="Layer 1" xmlns="http://www.w3.org/2000/svg" xmlns:xlink="http://www.w3.org/1999/xlink" viewBox="0 0 1229 621.31">
  <defs>
    <image id="image" width="300" height="195" xlink:href="../Desktop/plane.png"/>
    <image id="image-2" width="400" height="267" xlink:href="../Desktop/SFcarNew1 копия.png"/>
  </defs>
  <g id="consumer">
    <g>
      <path d="m35.39,618.5c.79,1.74,2.93,2.94,5.39,2.8,2.7-.16,4.91-2.16,4.91-4.35v-1.08s-9.12,2.43-9.12,2.43c-.38.1-.78.17-1.18.21Z"/>
      <ellipse cx="46.87" cy="538.72" rx="9.18" ry="7.41"/>
      <path d="m22.82,593.69c-.52-1.83.29-3.64,1.97-4.77l-.81-1.98-.84,2.06-.87-.23c-1.39-.37-2.9.18-3.48,1.26l-10.64,19.9c-.66,1.23.14,2.65,1.71,3.07l10.89,2.89c1.58.42,3.26-.34,3.64-1.65l2.18-7.55-3.74-12.98s0,0,0-.01Z"/>
      <path d="m97.21,603.18l-17.8-16.22c-.97-.88-2.62-1.03-3.8-.32l-.74.44-1.59-1.74v2.09c2.03.65,3.51,2.17,3.72,4.04,0,0,0,0,0,.01l1.46,13.28,4.99,6.62c.86,1.15,2.76,1.45,4.1.65l9.23-5.49c1.34-.8,1.54-2.35.44-3.35Z"/>
      <path d="m73.9,591.67c-.13-1.18-1.35-2.08-2.82-2.09h-.87s0-3.09,0-3.09c1.86-.56,3.09-2.09,2.85-3.76-.16-1.09-3.61-25.03-3.77-26.12-.18-4.54-4.82-8.2-10.49-8.2h-23.88c-5.72,0-10.4,3.78-10.42,8.43v.03c0,1.04.08,25.34.08,26.3,0,1.42,1.03,2.64,2.5,3.22l1.55,3.82-.87.23c-1.38.37-2.19,1.54-1.86,2.69l6.06,21.15c.38,1.31,2.06,2.07,3.62,1.65l10.83-2.9c1.56-.42,2.36-1.84,1.7-3.08l-10.58-19.93c-.58-1.09-2.08-1.64-3.46-1.27l-.87.23-1.28-3.16c.9-.66,1.47-1.61,1.47-2.67,0-.99-.07-25.27-.08-26.29,0-.24.96-.42,1.25-.43.29,0,.53.19.53.42l-.03,25.86h.03v2.73l.26.65c2.22.11,4.19,1.23,5.09,2.9l5.24,9.84v-16.11h2.37v20.4l3.09,5.77c1.3,2.42-.06,5.25-3.09,6.32v1.71c0,2.22,2.06,4.13,4.8,4.34,2.99.23,5.54-1.54,5.81-3.85-1.84-1.02-2.75-2.72-2.57-4.4l2.74-23.14s-.4-3.5-.48-32.85c0-.39.37-.72.86-.75s1.16.25,1.23.64v.06c.05.29,1.5,10.66,3.77,26.6.11.77.51,1.45,1.1,1.98v4.02s-.91,0-.91,0c-1.45,0-2.65.9-2.78,2.07l-2.38,21.54c0,.08-.01.16-.01.24.02,1.24,1.27,2.24,2.79,2.24l11.42.11h0c1.66,0,2.97-1.15,2.82-2.49l-2.38-21.64Z"/>
    </g>
  </g>
  <g id="Company">
    <path id="Path_133" data-name="Path 133" d="m87.06,134.54H19.56c-6.21,0-11.25,3.78-11.25,8.44v81.56h90v-81.56c-.02-.12-.05-.23-11.25-8.44Zm-41.25,84.38v-16.87h15v16.87h-15Zm45,0h-22.5v-19.69c0-1.55-1.68-2.81-3.75-2.81h-22.5c-2.07,0-3.75,1.26-3.75,2.81v19.69H15.81v-75.94c0-1.55,1.68-2.81,3.75-2.81h67.5c2.07,0,3.75,1.26,3.75,2.81v75.94Zm-60-67.5h15v11.25h-15v-11.25Zm30,0h15v11.25h-15v-11.25Zm-30,22.5h15v11.25h-15v-11.25Zm30,0h15v11.25h-15v-11.25Z"/>
  </g>
  <g id="Store">
    <path d="m96,376.49h-15.89l-21.15-25.4c-1.73-1.91-4.67-2.06-6.58-.34-.12.11-.23.22-.34.34l-21.15,25.4h-15.89c-2.48,0-4.5,2.02-4.5,4.5v54.06c0,2.49,2.01,4.5,4.5,4.5h81c2.48,0,4.5-2.02,4.5-4.5v-54.06c0-2.49-2.01-4.5-4.5-4.5Zm-40.52-15.47l12.89,15.47h-25.77l12.89-15.47Zm18.08,60.57h-36.11c-2.15,0-4.22-1.73-4.53-3.86-.4-2.79,1.76-5.19,4.47-5.19h36.11c2.15,0,4.22,1.73,4.53,3.86.4,2.79-1.76,5.19-4.47,5.19Zm9.04-17.96H28.41c-2.15,0-4.22-1.73-4.53-3.86-.4-2.79,1.76-5.19,4.47-5.19h54.19c2.15,0,4.22,1.73,4.53,3.86.4,2.79-1.76,5.19-4.47,5.19Z"/>
  </g>
  <g>
    <path d="m936.27,265.04h-77.85c-3.45,0-6.15,2.7-6.15,6.15v82.35c0,.9.6,1.5,1.5,1.5h87c.9,0,1.5-.6,1.5-1.5v-82.35c0-3.45-2.7-6.15-6-6.15Zm-4.57,49.5h-68.96v-3.04h68.96v3.04h0Zm0-5.96h-68.96v-3.04h68.96v3.04h0Zm-68.96,9h68.96v3.04h-68.96v-3.04Zm70.54-21.04h-72v-5.96h72v5.96h0Zm-1.46,3.04v3.04h-68.96v-3.04h68.96Zm-63.04,49.46c0-1.65,1.35-3,3-3s3,1.35,3,3-1.35,3-3,3-3-1.35-3-3Zm12,3c-1.65,0-3-1.35-3-3s1.35-3,3-3,3,1.35,3,3-1.35,3-3,3Zm26.96-20.96h3.04v3.04h-3.04v-3.04Zm-1.43,5.96h6c.83,0,1.5-.67,1.5-1.5v-4.46h2.93v9h-14.96v-9h3.04v4.46c0,.83.67,1.5,1.5,1.5Zm10.43,5.96h3.04v3.04h-3.04v-3.04Zm-16.48,0h1.52v3.04h-3.04v-3.04h1.52Zm-2.94,6.08h6c.83,0,1.5-.67,1.5-1.5v-4.46h2.93v8.89h-14.96v-8.89h3.04v4.46c0,.83.67,1.5,1.5,1.5Zm13.46,2.93v-9h3.04v4.46c0,.83.67,1.5,1.5,1.5h6c.83,0,1.5-.67,1.5-1.5v-4.46h2.93v9h-14.96Zm18,0v-10.43c0-.83-.67-1.5-1.5-1.5h-7.5v-10.54c0-.83-.67-1.5-1.5-1.5h-18.04c-.83,0-1.5.67-1.5,1.5v10.54h-7.5c-.83,0-1.5.67-1.5,1.5v10.43h-3.81c.51-.88.81-1.91.81-3,0-3.3-2.7-5.99-6-5.99-1.79,0-3.4.79-4.5,2.04-1.1-1.25-2.71-2.04-4.5-2.04-3.3,0-6,2.7-6,5.99,0,1.09.3,2.11.81,3h-3.81v-28.46h69.08v28.46h-3.04Zm10.57.11h-4.61v-52.56c.88,0,1.46-.6,1.46-1.5v-9.01c0-.83-.67-1.5-1.5-1.5h-74.85c-.83,0-1.5.67-1.5,1.5v9c0,.9.58,1.5,1.46,1.5v52.46h-4.5v-80.77c0-1.74,1.41-3.15,3.15-3.15h77.74c1.74,0,3.15,1.41,3.15,3.15v80.89h0Z"/>
    <path d="m918.27,271.01h-42c-.83,0-1.5.67-1.5,1.5v10.5c0,.83.67,1.5,1.5,1.5h42c.83,0,1.5-.67,1.5-1.5v-10.5c0-.9-.6-1.5-1.5-1.5Zm-1.43,10.58h-39.04v-7.54h39.04v7.54h0Z"/>
  </g>
  <g id="warehouse">
    <path d="m443.24,380.95c-.52,0-1.04-.13-1.51-.37l-39.6-21.99-39.6,21.84c-1.76.91-3.86.09-4.69-1.83s-.08-4.2,1.68-5.11l42.61-22.96,42.61,22.96c1.89.45,3.09,2.49,2.67,4.55-.42,2.06-2.29,3.36-4.18,2.91Zm-58.25,37.23h-20.55v22.36h20.55v-22.36Zm27.36,0h-20.55v22.36h20.55v-22.36Zm27.49,0h-20.55v22.36h20.55v-22.36Zm-13.74-29.77h-20.55v22.36h20.55v-22.36Zm-27.36,0h-20.55v22.36h20.55v-22.36Z"/>
  </g>
  <g id="customs">
    <path d="m536.73,426.98v8.36c0,2.59,1.82,4.7,4.05,4.7h29.4c2.22,0,4.05-2.12,4.05-4.7v-8.36h-37.49Z"/>
    <path d="m531.46,383.4h-1.92c-2.22,0-4.05,2.12-4.05,4.7v34.18c0,2.59,1.82,4.7,4.05,4.7h7.19v-43.58h-5.27Z"/>
    <polygon points="579.23 430.68 579.23 440.04 615.5 440.04 615.5 426.84 579.23 426.84 579.23 430.68"/>
    <polygon points="603.53 358.28 603.53 350.04 577.49 350.04 582.28 358.28 603.53 358.28"/>
    <path d="m582.51,361.54l-4.33,6.53h5.92c0,5.96,3.91,10.8,8.93,11.26,5.68.52,10.5-4.81,10.5-11.43v-6.36h-21.03Z"/>
    <path d="m615.5,421.16v-30.22c0-4.17-2.9-7.54-6.49-7.54h-.85l-13.83,21.77-10.17,15.99h31.34Z"/>
    <path d="m579.23,398.04v21.12l22.74-35.76h-24.04c-2.14,0-5.19,1.95-6.72,4.35-1.53,2.4-2.75,4.35-2.75,4.35l-13.2,20.67c-1.45,2.22-.99,5.32.92,7.01l.46.35c1.91,1.6,4.58,1.15,6.03-1.06l16.56-25.91v4.88Z"/>
  </g>
  <g id="hub1">
    <g>
      <path d="m936,450.54h-77.85c-3.45,0-6.15,2.7-6.15,6.15v82.35c0,.9.6,1.5,1.5,1.5h87c.9,0,1.5-.6,1.5-1.5v-82.35c0-3.45-2.7-6.15-6-6.15Zm-4.57,49.5h-68.96v-3.04h68.96v3.04h0Zm0-5.96h-68.96v-3.04h68.96v3.04h0Zm-68.96,9h68.96v3.04h-68.96v-3.04Zm70.54-21.04h-72v-5.96h72v5.96h0Zm-1.46,3.04v3.04h-68.96v-3.04h68.96Zm-63.04,49.46c0-1.65,1.35-3,3-3s3,1.35,3,3-1.35,3-3,3-3-1.35-3-3Zm12,3c-1.65,0-3-1.35-3-3s1.35-3,3-3,3,1.35,3,3-1.35,3-3,3Zm26.96-20.96h3.04v3.04h-3.04v-3.04Zm-1.43,5.96h6c.83,0,1.5-.67,1.5-1.5v-4.46h2.93v9h-14.96v-9h3.04v4.46c0,.83.67,1.5,1.5,1.5Zm10.43,5.96h3.04v3.04h-3.04v-3.04Zm-16.48,0h1.52v3.04h-3.04v-3.04h1.52Zm-2.94,6.08h6c.83,0,1.5-.67,1.5-1.5v-4.46h2.93v8.89h-14.96v-8.89h3.04v4.46c0,.83.67,1.5,1.5,1.5Zm13.46,2.92v-9h3.04v4.46c0,.83.67,1.5,1.5,1.5h6c.83,0,1.5-.67,1.5-1.5v-4.46h2.93v9h-14.96Zm18,0v-10.43c0-.83-.67-1.5-1.5-1.5h-7.5v-10.54c0-.83-.67-1.5-1.5-1.5h-18.04c-.83,0-1.5.67-1.5,1.5v10.54h-7.5c-.83,0-1.5.67-1.5,1.5v10.43h-3.81c.51-.88.81-1.91.81-3,0-3.3-2.7-5.99-6-5.99-1.79,0-3.4.79-4.5,2.04-1.1-1.25-2.71-2.04-4.5-2.04-3.3,0-6,2.7-6,5.99,0,1.09.3,2.11.81,3h-3.81v-28.46h69.08v28.46h-3.04Zm10.57.11h-4.61v-52.56c.88,0,1.46-.6,1.46-1.5v-9.01c0-.83-.67-1.5-1.5-1.5h-74.85c-.83,0-1.5.67-1.5,1.5v9c0,.9.58,1.5,1.46,1.5v52.46h-4.5v-80.77c0-1.74,1.41-3.15,3.15-3.15h77.74c1.74,0,3.15,1.41,3.15,3.15v80.89h0Z"/>
      <path d="m918,456.51h-42c-.83,0-1.5.67-1.5,1.5v10.5c0,.83.67,1.5,1.5,1.5h42c.83,0,1.5-.67,1.5-1.5v-10.5c0-.9-.6-1.5-1.5-1.5Zm-1.43,10.58h-39.04v-7.54h39.04v7.54h0Z"/>
    </g>
  </g>
  <g id="house2">
    <path d="m1194.17,209.03l8.57,8.22,21.43-20.54m-44.97-25.63v20.49m10.05-10.32h-20.1m-24.9-21.57v32.97c0,8.63,0,12.94,1.63,16.24,1.44,2.9,3.73,5.26,6.56,6.73,3.21,1.68,7.41,1.68,15.81,1.68h6m49.92-46.27l-27.17-31c-6.18-7.05-9.27-10.57-12.91-11.88-3.2-1.14-6.67-1.14-9.87,0-3.64,1.3-6.73,4.83-12.9,11.88l-27.16,31" fill="none" stroke="#000" stroke-linecap="round" stroke-linejoin="round" stroke-width="9"/>
  </g>
  <g id="house1">
    <path d="m1194.5,600.78l8.57,8.22,21.43-20.54m-44.97-25.63v20.49m10.05-10.32h-20.1m-24.9-21.57v32.97c0,8.63,0,12.94,1.63,16.24,1.44,2.9,3.73,5.26,6.56,6.73,3.21,1.68,7.41,1.68,15.81,1.68h6m49.92-46.27l-27.17-31c-6.18-7.05-9.27-10.57-12.91-11.88-3.2-1.14-6.67-1.14-9.87,0-3.64,1.3-6.73,4.83-12.9,11.88l-27.16,31" fill="none" stroke="#000" stroke-linecap="round" stroke-linejoin="round" stroke-width="9"/>
  </g>
  <use id="car5" transform="translate(3.58 55.56) rotate(.55) scale(.26 .23)" xlink:href="#image-2"/>
  <use id="car4" transform="translate(0 266.37) rotate(-.19) scale(.25)" xlink:href="#image-2"/>
  <use id="car3" transform="translate(5 456.38) rotate(-.76) scale(.25)" xlink:href="#image-2"/>
  <use id="car2" transform="translate(842 379.1) rotate(-1.16) scale(.25)" xlink:href="#image-2"/>
  <use id="car1" transform="translate(845 182.88) rotate(-.47) scale(.25)" xlink:href="#image-2"/>
  <use id="plane2" transform="translate(587 253.43) rotate(-.2) scale(.37 .35)" xlink:href="#image"/>
  <use id="plane1" transform="translate(586 467.08) rotate(-.53) scale(.37 .35)" xlink:href="#image"/>
  <g id="rotate">
    <path d="m463.84,398.02c-.11-.92-.17-1.86-.17-2.81,0-12.43,10.07-22.5,22.5-22.5,7.03,0,13.31,3.23,17.44,8.28m4.89,11.41c.12.92.17,1.86.17,2.81,0,12.43-10.07,22.5-22.5,22.5-6.72,0-12.75-2.95-16.88-7.62m8.48-.83h-8.44v.84m34.26-37.38v8.27m0,0v.17h-8.44m-25.82,36.53v-7.59" fill="none" stroke="#c1272d" stroke-linecap="round" stroke-linejoin="round" stroke-width="8"/>
  </g>
  <path id="path2" d="m103.5,388.6c15.54-18.44,73.08-81.89,149.95-64.45,48.36,10.97,82.7,49.04,99.55,70.9" fill="none" stroke="#ed1c24" stroke-miterlimit="10"/>
  <path id="path1" d="m96.5,565.54c19.77-22.71,51.88-53.5,102.53-84.08,57.42-34.67,116.05-55.42,156.97-67.42" fill="none" stroke="#ed1c24" stroke-miterlimit="10"/>
  <path id="path4" d="m634,395.04c11.67-16.56,44.09-57.76,103.33-79.3,40.88-14.87,77.03-14.01,97.17-12.02" fill="none" stroke="#ed1c24" stroke-miterlimit="10"/>
  <path id="path5" d="m632,409.54c13.79-2.76,68.89-12.44,126.57,12,47.97,20.32,69.89,52.45,76.93,64" fill="none" stroke="#ed1c24" stroke-miterlimit="10"/>
  <path id="path6" d="m957.5,292.54c9.27-15.65,28.24-42.08,65.02-66.72,40.3-26.99,82.38-38.69,105.48-43.78" fill="none" stroke="#ed1c24" stroke-miterlimit="10"/>
  <path id="path7" d="m953.5,499.54c28.97,2.94,60.32,8.02,93.63,16.17,34.26,8.39,65.96,18.88,94.87,30.33" fill="none" stroke="#ed1c24" stroke-miterlimit="10"/>
  <path id="path3" d="m101.5,172.54c22.38-3.42,79.3-8.99,140,21,89.57,44.26,117.31,131.33,122,147" fill="none" stroke="#ed1c24" stroke-miterlimit="10"/>
</svg>