<?xml version="1.0" encoding="UTF-8"?>
<svg id="Layer_1" data-name="Layer 1" xmlns="http://www.w3.org/2000/svg" xmlns:xlink="http://www.w3.org/1999/xlink" viewBox="0 0 390.21 413.67">
  <g>
    <path d="m353.85,79.59v-22.19c0-.66-.5-1.19-1.12-1.19h-6.36v-5.12c0-.66-.5-1.19-1.12-1.19h-4.84v-1.61c0-3.32-2.44-6.11-5.57-6.28-3.38-.18-6.19,2.67-6.19,6.21v1.67h-4.84c-.62,0-1.12.53-1.12,1.19v5.12h-6.41c-.62,0-1.12.53-1.12,1.19v22.19c-1.74.03-3.15,1.55-3.15,3.41v.58c0,1.89,1.44,3.41,3.22,3.41h38.55c1.78,0,3.22-1.53,3.22-3.41v-.58c0-1.86-1.41-3.38-3.15-3.41Zm-30.09-4.44h21.49c.62,0,1.12-.53,1.12-1.19v-11.32h1.69v16.68h-27.11v-16.68h1.69v11.32c0,.66.5,1.19,1.13,1.19Zm27.84-16.56v20.73h-1.29v-17.87c0-.66-.5-1.19-1.12-1.19h-2.81v-1.67h5.23Zm-20.7-10.37c0-2.22,1.79-4.01,3.92-3.83,1.89.16,3.33,1.87,3.33,3.88v1.62h-7.26v-1.67Zm-5.96,4.06h3.71v2.01c0,.62.44,1.16,1.02,1.21.67.06,1.23-.49,1.23-1.19v-2.04h7.26v2.01c0,.62.44,1.16,1.02,1.21.67.06,1.23-.49,1.23-1.19v-2.04h3.71v20.49h-19.18v-20.49Zm-7.54,6.31h5.23v1.67h-2.81c-.62,0-1.12.53-1.12,1.19v17.87h-1.29v-20.73h0Zm36.38,26.03h-38.55c-.54,0-.97-.46-.97-1.03v-.56c0-.57.44-1.03.97-1.03h38.55c.54,0,.97.46.97,1.03v.56c0,.57-.44,1.03-.97,1.03Z"/>
    <polygon points="337.8 65.08 330.5 61.98 333.42 69.73 334.13 67.38 337.08 70.5 338.53 68.96 335.59 65.83 337.8 65.08"/>
  </g>
  <path d="m354.4,208.11l-.63-.24c.05-.48.03-.96-.05-1.44l.61-.29c.38-.18.55-.65.37-1.04l-.35-.8c-.17-.39-.63-.56-1.01-.38l-.61.29c-.3-.38-.64-.71-1.02-.98l.23-.65c.14-.41-.06-.86-.45-1.01l-.8-.3c-.38-.14-.83.07-.97.46l-.23.65c-.46-.05-.93-.03-1.39.06l-.28-.63c-.17-.39-.63-.56-1-.38l-.77.37c-.38.18-.55.65-.37,1.04l.28.63c-.37.31-.68.66-.95,1.06l-.63-.24c-.38-.15-.83.07-.97.46l-.29.82c-.07.2-.06.41.02.6.09.19.24.33.43.41l.63.24c-.05.47-.03.96.05,1.44l-.61.29c-.38.18-.55.65-.37,1.04l.36.8c.17.39.63.57,1.01.38l.61-.29c.3.38.64.71,1.02.98l-.23.65c-.07.2-.06.41.02.6.08.19.24.33.43.41l.8.3c.19.07.4.06.58-.02.18-.09.32-.24.39-.44l.23-.65c.46.05.93.03,1.39-.05l.28.63c.18.39.63.56,1.01.38l.77-.37c.38-.18.55-.65.37-1.04l-.28-.63c.37-.31.69-.67.95-1.06l.63.24c.19.07.4.06.58-.02.18-.09.32-.24.39-.44l.29-.82c.15-.4-.06-.86-.45-1Zm-4.17,2.05c-.4.19-.82.28-1.25.28-1.17,0-2.24-.71-2.72-1.8-.69-1.55-.03-3.4,1.47-4.11.4-.19.82-.28,1.25-.28,1.17,0,2.24.71,2.72,1.8.69,1.55.03,3.4-1.47,4.11Zm-1.12-13.03c-5.45,0-9.89,4.58-9.89,10.22s4.43,10.22,9.89,10.22,9.89-4.58,9.89-10.22c0-5.64-4.44-10.22-9.89-10.22Zm0,19.1c-4.74,0-8.59-3.98-8.59-8.88s3.85-8.88,8.59-8.88,8.59,3.98,8.59,8.88-3.85,8.88-8.59,8.88Zm-20.73,15.54h6.53v1.8h-6.53v-1.8Zm0-2.38h6.53v1.8h-6.53v-1.8Zm5.74-.58h-6.53v-1.8h6.53v1.8Zm1.52,1.48c0,2.02,1.59,3.67,3.55,3.67s3.55-1.65,3.55-3.67-1.59-3.67-3.55-3.67c-1.96,0-3.55,1.65-3.55,3.67Zm5.88,0c0,1.33-1.05,2.41-2.33,2.41s-2.33-1.08-2.33-2.41,1.05-2.41,2.33-2.41,2.33,1.08,2.33,2.41Zm-2.62,1.74v.56h.45v-.6c.36-.05.61-.15.79-.31.19-.18.29-.41.29-.68,0-.22-.07-.41-.2-.57-.13-.15-.36-.29-.7-.42l-.13-.06v-.84c.21.03.45.09.68.19l.06.02.23-.6-.06-.02c-.3-.13-.61-.2-.92-.22v-.41h-.51v.45c-.29.04-.53.14-.7.29-.19.17-.29.39-.29.65,0,.24.07.45.2.61.13.16.34.3.62.42l.17.07v.87c-.13,0-.28-.03-.44-.07-.19-.05-.35-.11-.49-.18l-.09-.05v.7l.04.02c.26.12.59.19.98.2Zm.51-1.36c.11.05.19.09.24.14.06.05.08.12.08.2,0,.06,0,.24-.32.32v-.67h0Zm-.72-1.05c-.05-.06-.07-.12-.07-.21,0-.08.03-.14.09-.19.05-.04.12-.08.21-.1v.64c-.1-.05-.17-.1-.22-.14Zm-3.52-9.54c-5.45,0-9.89,4.58-9.89,10.22s4.44,10.22,9.89,10.22,9.89-4.58,9.89-10.22c0-5.63-4.44-10.22-9.89-10.22Zm0,19.1c-4.74,0-8.59-3.98-8.59-8.88s3.85-8.88,8.59-8.88,8.59,3.98,8.59,8.88c0,4.9-3.85,8.88-8.59,8.88Zm7.87-17.39l-1.32-.84,2-3.39,1.32.84-2,3.39Zm-5.15-14.25h-3.26v-1.63h3.26v1.63Zm-9.02,9.27l1.65,3.19-1.37.76-1.65-3.19,1.37-.76Zm-2.37-15.71c0,1.67-1.31,3.03-2.93,3.03s-2.93-1.35-2.93-3.03,1.31-3.03,2.93-3.03c1.62,0,2.93,1.35,2.93,3.03Zm6.64,4.31c0-5.45-4.29-9.89-9.57-9.89-5.28,0-9.57,4.44-9.57,9.89s4.29,9.89,9.57,9.89,9.57-4.44,9.57-9.89Zm-12.57,7.89c-.13-.05-.25-.11-.38-.16-.28-1.35-.03-3.46.38-4.19v4.35Zm3.01-2.27h-.01l-.71-1,.71-4.87h.01l.71,4.87-.71,1Zm3.38,2.11c-.12.06-.25.11-.37.16v-4.35c.4.73.65,2.83.37,4.18Zm-1.44-8.27s-.1-.05-.15-.08c-.33-.22-.69-.39-1.07-.48l-.73.76-.71-.77s0,0,0,0c-.38.09-.75.26-1.09.49-.05.02-.1.04-.15.07-1.09.69-3.89,2.55-3.75,6.06,0,.13.01.35.03.61-1.56-1.54-2.53-3.71-2.53-6.11,0-4.67,3.68-8.47,8.2-8.47s8.2,3.8,8.2,8.47c0,2.4-.97,4.57-2.53,6.12.01-.22.02-.41.03-.53.19-3.56-2.64-5.45-3.74-6.14Z"/>
  <g id="Wellness_gadget" data-name="Wellness gadget">
    <path d="m322.63,277.38c.08,1.18,1.05,2.09,2.22,2.09h6.68c1.17,0,2.14-.91,2.22-2.09h5.94c.98,0,1.77-.8,1.77-1.8v-3.6c0-.99-.79-1.79-1.77-1.8h-5.94c-.08-1.18-1.05-2.09-2.22-2.09h-6.68c-1.17,0-2.14.91-2.22,2.09h-5.35c-.98,0-1.77.8-1.77,1.8v3.6c0,.99.79,1.79,1.77,1.8h5.35Zm17.69-5.36v3.53c0,.36-.29.66-.64.66h-5.92v-4.86h5.92c.36,0,.64.3.64.66Zm-16.45-1.82c0-.45.36-.81.79-.81h7.02c.44,0,.79.36.79.81v7.17c0,.45-.36.81-.79.81h-7.02c-.44,0-.79-.36-.79-.81v-7.17Zm-7.29,5.35v-3.53c0-.36.29-.66.65-.66h5.37v4.86h-5.37c-.36,0-.65-.3-.65-.66Z"/>
    <path d="m325.33,274.31h1.34s.58-.19.7-.48l.34-.8.69,2.46c.09.32.37.55.69.57.01,0,.03,0,.04,0,.31,0,.59-.19.71-.49l.57-1.38h.76c.21,0,.4-.13.46-.33.1-.34-.14-.65-.46-.65h-.88s-.59.17-.71.47l-.42,1.06-.68-2.44c-.12-.41-.54-.66-.95-.54-.22.06-.4.23-.49.44l-.49,1.14h-1.22c-.21,0-.4.13-.46.33-.1.34.14.65.46.65h0Z"/>
    <path d="m338.2,274.48c.38,0,.69-.32.69-.71,0-.39-.31-.71-.69-.71-.38,0-.69.32-.69.71,0,.39.31.71.69.71h0Z"/>
    <ellipse cx="335.9" cy="273.77" rx=".69" ry=".71"/>
    <path d="m324.05,295.21v-1.78h1.57v2.17c-.75.3-1.1,1.2-.75,1.97.3.64,1.03.97,1.69.75.78-.26,1.17-1.13.88-1.9-.14-.37-.43-.67-.79-.82v-2.17h.34c.65,0,1.17-.53,1.17-1.19v-1.51h1.77c.29,1.03,1.38,1.6,2.38,1.23.86-.32,1.37-1.25,1.16-2.16-.23-1.06-1.29-1.69-2.3-1.39-.6.18-1.07.66-1.25,1.27h-1.77v-1.34c0-.65-.52-1.18-1.15-1.18h-.35v-.82c0-.05.04-.1.09-.1h1.2c.62,0,1.12-.52,1.12-1.15v-.06c1.01-.3,1.58-1.44,1.2-2.48-.31-.87-1.22-1.38-2.1-1.18-1.05.24-1.67,1.33-1.37,2.37.18.62.65,1.11,1.25,1.29v.07c0,.05-.04.1-.1.1h-1.18c-.63,0-1.13.52-1.13,1.16v.81h-1.57v-2.59c.75-.3,1.1-1.2.75-1.97-.3-.65-1.03-.98-1.69-.75-.78.26-1.17,1.13-.88,1.9.15.39.45.69.83.83-.01,0-.03,0-.04,0v2.51h-.28c-.65,0-1.17.53-1.17,1.19v1.39h-1.89c-.29-1.03-1.38-1.6-2.38-1.23-.86.32-1.37,1.25-1.16,2.16.23,1.06,1.29,1.69,2.3,1.39.6-.18,1.07-.66,1.25-1.27h1.89v1.52c0,.66.53,1.19,1.18,1.19h.27v1.78c0,.17-.13.3-.3.31h-.63c-.29-1.03-1.38-1.6-2.38-1.23-.86.32-1.36,1.25-1.16,2.16.23,1.06,1.29,1.69,2.3,1.39.6-.18,1.07-.66,1.25-1.27h.63c.73,0,1.32-.6,1.32-1.35Zm7.67-5.76c.4,0,.72.33.72.74s-.32.74-.72.74c-.4,0-.72-.33-.72-.74,0-.41.32-.74.72-.74h0Zm-3.93-6.25c0-.41.32-.74.72-.74s.72.33.72.74-.32.74-.72.74c-.4,0-.72-.33-.72-.74h0Zm-9.91,7.73c-.4,0-.72-.33-.72-.74s.32-.74.72-.74c.4,0,.72.33.72.74h0c0,.41-.32.74-.72.74h0Zm2.44,5.85c-.41,0-.74-.35-.72-.77.01-.38.32-.69.69-.71.41-.02.75.32.75.74h0c0,.41-.32.74-.72.74h0Zm2.35-4.93v-3.16c0-.23.18-.42.41-.42h3.57c.23,0,.41.19.41.42v3.16c0,.23-.18.42-.41.42h-3.58c-.23,0-.41-.19-.41-.42h0Z"/>
    <path d="m349.84,302.4h-1.25c-.42-1.04-1.42-1.72-2.53-1.72h-6.52c0-1.23-.98-2.23-2.19-2.23-1.2,0-2.18,1-2.18,2.23h-6.29c-1.11,0-2.1.68-2.53,1.72h-1.27c-.83,0-1.5.69-1.5,1.54v5.9c0,.85.67,1.53,1.5,1.53h2.23c.5.55,1.13.97,1.82,1.22,1.96.7,4.64.95,7.4-.97.56-.39,1.3-.39,1.86,0,2.76,1.92,5.44,1.67,7.4.97.69-.25,1.32-.67,1.82-1.22h2.23c.83,0,1.5-.69,1.5-1.53v-5.9c0-.85-.67-1.54-1.5-1.54Zm-12.49-2.81c.59,0,1.07.49,1.07,1.09,0,.6-.48,1.09-1.07,1.09-.59,0-1.07-.49-1.07-1.09h0c0-.6.48-1.09,1.07-1.09h0Zm7.91,11.35c-.74.27-1.52.41-2.3.42-1.25,0-2.45-.4-3.58-1.19-1.14-.79-2.63-.79-3.77,0-1.13.79-2.34,1.19-3.58,1.19-.79,0-1.56-.15-2.3-.42-1.16-.42-1.93-1.54-1.93-2.8v-4.67c0-.59.47-1.08,1.06-1.08h7.12c.81.69,2,.69,2.81,0h7.36c.58,0,1.05.48,1.06,1.08v4.67c0,1.26-.77,2.38-1.93,2.8Z"/>
    <path d="m334.61,297.17c-.23.22-.23.58-.02.81.22.23.57.24.8.02.34-.3.74-.52,1.18-.64.93-.26,1.88-.03,2.82.68.25.19.6.14.79-.12.19-.25.14-.62-.11-.81-2.41-1.84-4.63-.77-5.46.05Z"/>
    <path d="m335.61,293.92c-.89.26-1.72.73-2.41,1.35-.22.22-.23.59-.02.81.22.23.57.24.8.02h0c.12-.12,3.02-2.85,6.82.05.25.19.6.14.79-.12.19-.25.14-.62-.11-.81-2.38-1.82-4.51-1.71-5.87-1.31Z"/>
    <path d="m358.47,268.1h-12.68c-1.12,0-2.03.93-2.03,2.08v24.42c0,1.15.91,2.08,2.03,2.08h12.68c1.12,0,2.03-.93,2.03-2.08v-24.42c0-1.15-.91-2.08-2.03-2.08Zm-4.73,1.23h.93c.27,0,.51.18.57.44.09.38-.2.72-.56.72h-.93c-.27,0-.51-.18-.57-.44-.09-.38.2-.72.56-.72Zm-4.21,0h2.25c.27,0,.51.18.57.44.09.38-.2.72-.56.72h-2.25c-.27,0-.51-.18-.57-.44-.09-.38.2-.72.56-.72Zm9.35,24.65c0,.61-.48,1.1-1.08,1.1h-11.34c-.59,0-1.08-.49-1.08-1.1h0v-21.34c0-.61.48-1.1,1.08-1.1h11.34c.6,0,1.08.49,1.08,1.1h0s0,21.34,0,21.34Z"/>
    <path d="m347.39,277.14h1.81c.25,0,.45.21.45.46v5.41c0,.25-.2.46-.45.46h-1.81c-.25,0-.45-.21-.45-.46v-5.41c0-.25.2-.46.45-.46h0Z"/>
    <path d="m351.19,279.66h1.81c.25,0,.45.21.45.46v2.89c0,.25-.2.46-.45.46h-1.81c-.25,0-.45-.21-.45-.46v-2.89c0-.25.2-.46.45-.46Z"/>
    <path d="m354.99,275.23h1.81c.25,0,.45.21.45.46v7.31c0,.25-.2.46-.45.46h-1.81c-.25,0-.45-.21-.45-.46v-7.31c0-.25.2-.46.45-.46Z"/>
    <path d="m356.87,285.68h-9.6c-.27,0-.51.18-.57.44-.09.38.2.72.56.72h9.6c.27,0,.51-.18.57-.44.09-.38-.2-.72-.56-.72h0Z"/>
    <path d="m356.82,288.14h-2.39c-.27,0-.51.18-.57.44-.09.38.2.72.56.72h2.39c.27,0,.51-.18.57-.44.09-.38-.2-.72-.56-.72h0Z"/>
    <path d="m352.1,288.14h-4.79c-.27,0-.51.18-.57.44-.09.38.2.72.56.72h4.79c.27,0,.51-.18.57-.44.09-.38-.2-.72-.56-.72Z"/>
  </g>
  <path d="m358.59,362.52l-4.56,3.74c-.68.53-1.57.34-2.08-.45l-2.27-3.69v28.01c.01,1.01-.62,1.83-1.4,1.83l-23.18.02c-.78,0-1.41-.82-1.41-1.83v-28.04s-2.3,3.73-2.3,3.73c-.51.79-1.39.99-2.07.46l-4.57-3.73c-.55-.41-.74-1.32-.43-2.04.05-.11.11-.21.18-.3l6.68-9.62c1.59-2.29,3.85-3.6,6.22-3.6h2.78c1.54,4.65,5.69,6.8,9.28,4.8,1.67-.93,2.99-2.65,3.71-4.81h2.78c2.38,0,4.64,1.31,6.23,3.6l6.67,9.61c.45.59.44,1.54-.02,2.12-.07.09-.15.17-.23.23h0Z"/>
  <image width="1589" height="1878" transform="scale(.22)" xlink:href="../Pictures/sf-euro-map.png"/>
  <g>
    <path d="m338.12,150.35c1.02,0,1.85-.91,1.85-2.02s-.83-2.01-1.85-2.01l-4.67-3.68-.78.89,3.59,4.87v.07c.06,1.06.88,1.9,1.85,1.9Z"/>
    <path d="m337.33,122c-12.41,0-22.5,10.98-22.5,24.49,0,4.71,1.23,9.29,3.57,13.23l.17.3h2.79l3.79-3.6-1.63-2.04-3.69,3.51-.12-.22c-1.82-3.39-2.78-7.24-2.78-11.14,0-.11,0-.22.02-.36v-.41s4.51,0,4.51,0v-2.75h-4.26l.04-.25c.59-3.79,2.07-7.35,4.29-10.31l.14-.18,3.17,3.46,1.77-1.92-3.21-3.5.15-.15c3.31-3.32,7.4-5.31,11.83-5.77l.21-.02v5.67h2.53v-5.71h.2c4.91.26,9.57,2.43,13.12,6.11l.14.15-3.29,3.59,1.77,1.92,3.2-3.49.14.19c2.09,2.89,3.5,6.34,4.06,9.97l.04.25h-4.43v2.76h4.66l.02.44c0,.11.01.22.01.34,0,3.89-.95,7.72-2.75,11.09l-.13.24-3.48-3.78-1.76,1.92,3.7,4.03h2.75l.17-.3c2.34-3.95,3.57-8.52,3.57-13.23,0-13.5-10.09-24.49-22.5-24.49Z"/>
    <rect x="327.3" y="164.18" width="20.08" height="2.82"/>
  </g>
  <text transform="translate(321 104.67)" font-family="MyriadPro-Regular, &apos;Myriad Pro&apos;" font-size="12"><tspan x="0" y="0" letter-spacing="0em">R</tspan><tspan x="6.5" y="0">etail</tspan></text>
  <text transform="translate(286.67 182.33)" font-family="MyriadPro-Regular, &apos;Myriad Pro&apos;" font-size="12"><tspan x="0" y="0" letter-spacing="-.01em">A</tspan><tspan x="7.2" y="0">u</tspan><tspan x="13.81" y="0" letter-spacing="0em">t</tspan><tspan x="17.71" y="0" letter-spacing="0em">omobile </tspan><tspan x="61.92" y="0" letter-spacing=".01em">I</tspan><tspan x="64.91" y="0" letter-spacing="0em">ndust</tspan><tspan x="93.67" y="0" letter-spacing=".02em">r</tspan><tspan x="97.9" y="0" letter-spacing="0em">y</tspan></text>
  <text transform="translate(328.67 256.67)" font-family="MyriadPro-Regular, &apos;Myriad Pro&apos;" font-size="12"><tspan x="0" y="0">3C</tspan></text>
  <text transform="translate(312.33 333.67)" font-family="MyriadPro-Regular, &apos;Myriad Pro&apos;" font-size="12"><tspan x="0" y="0">Ele</tspan><tspan x="14.75" y="0" letter-spacing=".01em">c</tspan><tspan x="20.28" y="0">t</tspan><tspan x="24.25" y="0" letter-spacing="0em">r</tspan><tspan x="28.06" y="0">onic</tspan></text>
  <text transform="translate(314.33 410.67)" font-family="MyriadPro-Regular, &apos;Myriad Pro&apos;" font-size="12"><tspan x="0" y="0">Clothing</tspan></text>
</svg>